<mxfile host="app.diagrams.net" modified="2024-06-04T19:11:22.409Z" agent="Mozilla/5.0 (Macintosh; Intel Mac OS X 10_15_7) AppleWebKit/537.36 (KHTML, like Gecko) Chrome/125.0.0.0 Safari/537.36" etag="hR0d0rXgLK5E3UG-ERvq" version="24.4.13" type="github">
  <diagram name="Página-1" id="KHGDxLByg3vS5e9Op4B_">
    <mxGraphModel dx="2093" dy="1819" grid="1" gridSize="10" guides="1" tooltips="1" connect="1" arrows="1" fold="1" page="1" pageScale="1" pageWidth="827" pageHeight="1169" math="0" shadow="0">
      <root>
        <mxCell id="0" />
        <mxCell id="1" parent="0" />
        <mxCell id="IWDR3bXAUsiOQZhs0rEP-1" value="RESERVA" style="whiteSpace=wrap;html=1;align=center;fillColor=#dae8fc;strokeColor=#6c8ebf;" parent="1" vertex="1">
          <mxGeometry x="460" y="280" width="100" height="40" as="geometry" />
        </mxCell>
        <mxCell id="IWDR3bXAUsiOQZhs0rEP-83" style="edgeStyle=orthogonalEdgeStyle;rounded=0;orthogonalLoop=1;jettySize=auto;html=1;entryX=0.5;entryY=1;entryDx=0;entryDy=0;endArrow=none;endFill=0;" parent="1" source="IWDR3bXAUsiOQZhs0rEP-2" target="IWDR3bXAUsiOQZhs0rEP-67" edge="1">
          <mxGeometry relative="1" as="geometry" />
        </mxCell>
        <mxCell id="IWDR3bXAUsiOQZhs0rEP-2" value="PASAJERO" style="whiteSpace=wrap;html=1;align=center;fillColor=#dae8fc;strokeColor=#6c8ebf;" parent="1" vertex="1">
          <mxGeometry x="-200" y="280" width="100" height="40" as="geometry" />
        </mxCell>
        <mxCell id="IWDR3bXAUsiOQZhs0rEP-3" value="Realiza" style="shape=rhombus;perimeter=rhombusPerimeter;whiteSpace=wrap;html=1;align=center;fillColor=#ffe6cc;strokeColor=#d79b00;" parent="1" vertex="1">
          <mxGeometry x="130" y="275" width="100" height="50" as="geometry" />
        </mxCell>
        <mxCell id="IWDR3bXAUsiOQZhs0rEP-7" value="" style="endArrow=none;html=1;rounded=0;" parent="1" source="IWDR3bXAUsiOQZhs0rEP-2" target="IWDR3bXAUsiOQZhs0rEP-3" edge="1">
          <mxGeometry relative="1" as="geometry">
            <mxPoint x="-150" y="360" as="sourcePoint" />
            <mxPoint x="10" y="360" as="targetPoint" />
          </mxGeometry>
        </mxCell>
        <mxCell id="IWDR3bXAUsiOQZhs0rEP-8" value="" style="endArrow=none;html=1;rounded=0;" parent="1" source="IWDR3bXAUsiOQZhs0rEP-3" target="IWDR3bXAUsiOQZhs0rEP-1" edge="1">
          <mxGeometry relative="1" as="geometry">
            <mxPoint x="340" y="360" as="sourcePoint" />
            <mxPoint x="500" y="360" as="targetPoint" />
          </mxGeometry>
        </mxCell>
        <mxCell id="IWDR3bXAUsiOQZhs0rEP-9" value="Puede" style="shape=rhombus;perimeter=rhombusPerimeter;whiteSpace=wrap;html=1;align=center;fillColor=#ffe6cc;strokeColor=#d79b00;" parent="1" vertex="1">
          <mxGeometry x="640" y="275" width="100" height="50" as="geometry" />
        </mxCell>
        <mxCell id="IWDR3bXAUsiOQZhs0rEP-11" value="EXTENSIÓN" style="whiteSpace=wrap;html=1;align=center;fillColor=#dae8fc;strokeColor=#6c8ebf;" parent="1" vertex="1">
          <mxGeometry x="820" y="280" width="100" height="40" as="geometry" />
        </mxCell>
        <mxCell id="IWDR3bXAUsiOQZhs0rEP-12" value="" style="endArrow=none;html=1;rounded=0;" parent="1" source="IWDR3bXAUsiOQZhs0rEP-11" target="IWDR3bXAUsiOQZhs0rEP-9" edge="1">
          <mxGeometry relative="1" as="geometry">
            <mxPoint x="130" y="360" as="sourcePoint" />
            <mxPoint x="290" y="360" as="targetPoint" />
          </mxGeometry>
        </mxCell>
        <mxCell id="IWDR3bXAUsiOQZhs0rEP-13" value="1 : M" style="text;strokeColor=none;fillColor=none;spacingLeft=4;spacingRight=4;overflow=hidden;rotatable=0;points=[[0,0.5],[1,0.5]];portConstraint=eastwest;fontSize=12;whiteSpace=wrap;html=1;fontStyle=1" parent="1" vertex="1">
          <mxGeometry x="160" y="245" width="40" height="30" as="geometry" />
        </mxCell>
        <mxCell id="IWDR3bXAUsiOQZhs0rEP-14" value="" style="endArrow=none;html=1;rounded=0;" parent="1" source="IWDR3bXAUsiOQZhs0rEP-1" target="IWDR3bXAUsiOQZhs0rEP-9" edge="1">
          <mxGeometry relative="1" as="geometry">
            <mxPoint x="550" y="370" as="sourcePoint" />
            <mxPoint x="710" y="370" as="targetPoint" />
          </mxGeometry>
        </mxCell>
        <mxCell id="IWDR3bXAUsiOQZhs0rEP-15" value="1 : M" style="text;strokeColor=none;fillColor=none;spacingLeft=4;spacingRight=4;overflow=hidden;rotatable=0;points=[[0,0.5],[1,0.5]];portConstraint=eastwest;fontSize=12;whiteSpace=wrap;html=1;fontStyle=1" parent="1" vertex="1">
          <mxGeometry x="670" y="245" width="40" height="30" as="geometry" />
        </mxCell>
        <mxCell id="IWDR3bXAUsiOQZhs0rEP-16" value="Asocia" style="shape=rhombus;perimeter=rhombusPerimeter;whiteSpace=wrap;html=1;align=center;fillColor=#ffe6cc;strokeColor=#d79b00;" parent="1" vertex="1">
          <mxGeometry x="460" y="140" width="100" height="50" as="geometry" />
        </mxCell>
        <mxCell id="IWDR3bXAUsiOQZhs0rEP-17" value="TARIFA" style="whiteSpace=wrap;html=1;align=center;fillColor=#dae8fc;strokeColor=#6c8ebf;" parent="1" vertex="1">
          <mxGeometry x="460" y="10" width="100" height="40" as="geometry" />
        </mxCell>
        <mxCell id="IWDR3bXAUsiOQZhs0rEP-18" value="" style="endArrow=none;html=1;rounded=0;" parent="1" source="IWDR3bXAUsiOQZhs0rEP-17" target="IWDR3bXAUsiOQZhs0rEP-16" edge="1">
          <mxGeometry relative="1" as="geometry">
            <mxPoint x="460" y="120" as="sourcePoint" />
            <mxPoint x="620" y="120" as="targetPoint" />
          </mxGeometry>
        </mxCell>
        <mxCell id="IWDR3bXAUsiOQZhs0rEP-19" value="" style="endArrow=none;html=1;rounded=0;" parent="1" source="IWDR3bXAUsiOQZhs0rEP-16" target="IWDR3bXAUsiOQZhs0rEP-1" edge="1">
          <mxGeometry relative="1" as="geometry">
            <mxPoint x="600" y="200" as="sourcePoint" />
            <mxPoint x="760" y="200" as="targetPoint" />
          </mxGeometry>
        </mxCell>
        <mxCell id="IWDR3bXAUsiOQZhs0rEP-20" value="1 : M" style="text;strokeColor=none;fillColor=none;spacingLeft=4;spacingRight=4;overflow=hidden;rotatable=0;points=[[0,0.5],[1,0.5]];portConstraint=eastwest;fontSize=12;whiteSpace=wrap;html=1;fontStyle=1" parent="1" vertex="1">
          <mxGeometry x="560" y="150" width="40" height="30" as="geometry" />
        </mxCell>
        <mxCell id="IWDR3bXAUsiOQZhs0rEP-26" value="MENÚ" style="whiteSpace=wrap;html=1;align=center;fillColor=#dae8fc;strokeColor=#6c8ebf;" parent="1" vertex="1">
          <mxGeometry x="400" y="600" width="100" height="40" as="geometry" />
        </mxCell>
        <mxCell id="IWDR3bXAUsiOQZhs0rEP-31" value="Fecha" style="ellipse;whiteSpace=wrap;html=1;align=center;fillColor=#d5e8d4;strokeColor=#82b366;" parent="1" vertex="1">
          <mxGeometry x="400" y="480" width="100" height="40" as="geometry" />
        </mxCell>
        <mxCell id="IWDR3bXAUsiOQZhs0rEP-32" value="Descripcion" style="ellipse;whiteSpace=wrap;html=1;align=center;fillColor=#d5e8d4;strokeColor=#82b366;" parent="1" vertex="1">
          <mxGeometry x="290" y="520" width="100" height="40" as="geometry" />
        </mxCell>
        <mxCell id="IWDR3bXAUsiOQZhs0rEP-33" value="ID-Menú" style="ellipse;whiteSpace=wrap;html=1;align=center;fontStyle=4;fillColor=#d5e8d4;strokeColor=#82b366;" parent="1" vertex="1">
          <mxGeometry x="520" y="520" width="100" height="40" as="geometry" />
        </mxCell>
        <mxCell id="IWDR3bXAUsiOQZhs0rEP-34" value="" style="endArrow=none;html=1;rounded=0;" parent="1" source="IWDR3bXAUsiOQZhs0rEP-33" target="IWDR3bXAUsiOQZhs0rEP-26" edge="1">
          <mxGeometry relative="1" as="geometry">
            <mxPoint x="400" y="670" as="sourcePoint" />
            <mxPoint x="560" y="670" as="targetPoint" />
          </mxGeometry>
        </mxCell>
        <mxCell id="IWDR3bXAUsiOQZhs0rEP-35" value="" style="endArrow=none;html=1;rounded=0;" parent="1" source="IWDR3bXAUsiOQZhs0rEP-31" target="IWDR3bXAUsiOQZhs0rEP-26" edge="1">
          <mxGeometry relative="1" as="geometry">
            <mxPoint x="330" y="650" as="sourcePoint" />
            <mxPoint x="490" y="650" as="targetPoint" />
          </mxGeometry>
        </mxCell>
        <mxCell id="IWDR3bXAUsiOQZhs0rEP-36" value="" style="endArrow=none;html=1;rounded=0;" parent="1" source="IWDR3bXAUsiOQZhs0rEP-32" target="IWDR3bXAUsiOQZhs0rEP-26" edge="1">
          <mxGeometry relative="1" as="geometry">
            <mxPoint x="270" y="650" as="sourcePoint" />
            <mxPoint x="430" y="650" as="targetPoint" />
          </mxGeometry>
        </mxCell>
        <mxCell id="IWDR3bXAUsiOQZhs0rEP-39" value="Desayuno,&lt;div&gt;Almuerzo,&lt;/div&gt;&lt;div&gt;Merienda&lt;/div&gt;" style="shape=hexagon;perimeter=hexagonPerimeter2;whiteSpace=wrap;html=1;fixedSize=1;fillColor=#e1d5e7;strokeColor=#9673a6;" parent="1" vertex="1">
          <mxGeometry x="-250" y="550" width="90" height="60" as="geometry" />
        </mxCell>
        <mxCell id="IWDR3bXAUsiOQZhs0rEP-45" value="Id-Tarifa" style="ellipse;whiteSpace=wrap;html=1;align=center;fontStyle=4;fillColor=#d5e8d4;strokeColor=#82b366;" parent="1" vertex="1">
          <mxGeometry x="340" y="-80" width="100" height="40" as="geometry" />
        </mxCell>
        <mxCell id="IWDR3bXAUsiOQZhs0rEP-46" value="Precio" style="ellipse;whiteSpace=wrap;html=1;align=center;fillColor=#d5e8d4;strokeColor=#82b366;" parent="1" vertex="1">
          <mxGeometry x="310" y="10" width="100" height="40" as="geometry" />
        </mxCell>
        <mxCell id="IWDR3bXAUsiOQZhs0rEP-47" value="" style="endArrow=none;html=1;rounded=0;" parent="1" source="IWDR3bXAUsiOQZhs0rEP-46" target="IWDR3bXAUsiOQZhs0rEP-17" edge="1">
          <mxGeometry relative="1" as="geometry">
            <mxPoint x="350" y="40" as="sourcePoint" />
            <mxPoint x="510" y="40" as="targetPoint" />
          </mxGeometry>
        </mxCell>
        <mxCell id="IWDR3bXAUsiOQZhs0rEP-48" value="" style="endArrow=none;html=1;rounded=0;" parent="1" source="IWDR3bXAUsiOQZhs0rEP-45" target="IWDR3bXAUsiOQZhs0rEP-17" edge="1">
          <mxGeometry relative="1" as="geometry">
            <mxPoint x="390" y="40" as="sourcePoint" />
            <mxPoint x="550" y="40" as="targetPoint" />
          </mxGeometry>
        </mxCell>
        <mxCell id="IWDR3bXAUsiOQZhs0rEP-49" value="Duración_Días" style="ellipse;whiteSpace=wrap;html=1;align=center;fillColor=#d5e8d4;strokeColor=#82b366;" parent="1" vertex="1">
          <mxGeometry x="460" y="-120" width="100" height="40" as="geometry" />
        </mxCell>
        <mxCell id="IWDR3bXAUsiOQZhs0rEP-50" value="" style="endArrow=none;html=1;rounded=0;" parent="1" source="IWDR3bXAUsiOQZhs0rEP-17" target="IWDR3bXAUsiOQZhs0rEP-49" edge="1">
          <mxGeometry relative="1" as="geometry">
            <mxPoint x="630" y="20" as="sourcePoint" />
            <mxPoint x="790" y="20" as="targetPoint" />
          </mxGeometry>
        </mxCell>
        <mxCell id="IWDR3bXAUsiOQZhs0rEP-51" value="Descripción" style="ellipse;whiteSpace=wrap;html=1;align=center;fillColor=#d5e8d4;strokeColor=#82b366;" parent="1" vertex="1">
          <mxGeometry x="590" y="10" width="100" height="40" as="geometry" />
        </mxCell>
        <mxCell id="IWDR3bXAUsiOQZhs0rEP-52" value="" style="endArrow=none;html=1;rounded=0;" parent="1" source="IWDR3bXAUsiOQZhs0rEP-17" target="IWDR3bXAUsiOQZhs0rEP-51" edge="1">
          <mxGeometry relative="1" as="geometry">
            <mxPoint x="530" y="100" as="sourcePoint" />
            <mxPoint x="690" y="100" as="targetPoint" />
          </mxGeometry>
        </mxCell>
        <mxCell id="IWDR3bXAUsiOQZhs0rEP-55" value="Id-Extensión" style="ellipse;whiteSpace=wrap;html=1;align=center;fontStyle=4;fillColor=#d5e8d4;strokeColor=#82b366;" parent="1" vertex="1">
          <mxGeometry x="820" y="200" width="100" height="40" as="geometry" />
        </mxCell>
        <mxCell id="IWDR3bXAUsiOQZhs0rEP-56" value="Date_Solicitud" style="ellipse;whiteSpace=wrap;html=1;align=center;fillColor=#d5e8d4;strokeColor=#82b366;" parent="1" vertex="1">
          <mxGeometry x="820" y="360" width="100" height="40" as="geometry" />
        </mxCell>
        <mxCell id="IWDR3bXAUsiOQZhs0rEP-57" value="Dias_Adicionales" style="ellipse;whiteSpace=wrap;html=1;align=center;fillColor=#d5e8d4;strokeColor=#82b366;" parent="1" vertex="1">
          <mxGeometry x="960" y="280" width="100" height="40" as="geometry" />
        </mxCell>
        <mxCell id="IWDR3bXAUsiOQZhs0rEP-61" value="" style="endArrow=none;html=1;rounded=0;" parent="1" source="IWDR3bXAUsiOQZhs0rEP-55" target="IWDR3bXAUsiOQZhs0rEP-11" edge="1">
          <mxGeometry relative="1" as="geometry">
            <mxPoint x="830" y="340" as="sourcePoint" />
            <mxPoint x="990" y="340" as="targetPoint" />
          </mxGeometry>
        </mxCell>
        <mxCell id="IWDR3bXAUsiOQZhs0rEP-62" value="" style="endArrow=none;html=1;rounded=0;" parent="1" source="IWDR3bXAUsiOQZhs0rEP-57" target="IWDR3bXAUsiOQZhs0rEP-11" edge="1">
          <mxGeometry relative="1" as="geometry">
            <mxPoint x="950" y="240" as="sourcePoint" />
            <mxPoint x="1110" y="240" as="targetPoint" />
          </mxGeometry>
        </mxCell>
        <mxCell id="IWDR3bXAUsiOQZhs0rEP-65" value="" style="endArrow=none;html=1;rounded=0;" parent="1" source="IWDR3bXAUsiOQZhs0rEP-11" target="IWDR3bXAUsiOQZhs0rEP-56" edge="1">
          <mxGeometry relative="1" as="geometry">
            <mxPoint x="920" y="320" as="sourcePoint" />
            <mxPoint x="1080" y="320" as="targetPoint" />
          </mxGeometry>
        </mxCell>
        <mxCell id="IWDR3bXAUsiOQZhs0rEP-84" style="edgeStyle=orthogonalEdgeStyle;rounded=0;orthogonalLoop=1;jettySize=auto;html=1;endArrow=none;endFill=0;" parent="1" source="IWDR3bXAUsiOQZhs0rEP-67" target="IWDR3bXAUsiOQZhs0rEP-2" edge="1">
          <mxGeometry relative="1" as="geometry" />
        </mxCell>
        <mxCell id="IWDR3bXAUsiOQZhs0rEP-67" value="Custodia" style="shape=rhombus;perimeter=rhombusPerimeter;whiteSpace=wrap;html=1;align=center;fillColor=#ffe6cc;strokeColor=#d79b00;" parent="1" vertex="1">
          <mxGeometry x="-350" y="200" width="100" height="50" as="geometry" />
        </mxCell>
        <mxCell id="IWDR3bXAUsiOQZhs0rEP-68" value="Id-Pasajero" style="ellipse;whiteSpace=wrap;html=1;align=center;fontStyle=4;fillColor=#d5e8d4;strokeColor=#82b366;" parent="1" vertex="1">
          <mxGeometry x="-80" y="200" width="100" height="40" as="geometry" />
        </mxCell>
        <mxCell id="IWDR3bXAUsiOQZhs0rEP-69" value="Nombre" style="ellipse;whiteSpace=wrap;html=1;align=center;fillColor=#d5e8d4;strokeColor=#82b366;" parent="1" vertex="1">
          <mxGeometry x="-150" y="150" width="100" height="40" as="geometry" />
        </mxCell>
        <mxCell id="IWDR3bXAUsiOQZhs0rEP-71" value="Apellido" style="ellipse;whiteSpace=wrap;html=1;align=center;fillColor=#d5e8d4;strokeColor=#82b366;" parent="1" vertex="1">
          <mxGeometry x="-200" y="400" width="100" height="40" as="geometry" />
        </mxCell>
        <mxCell id="IWDR3bXAUsiOQZhs0rEP-72" value="Email" style="ellipse;whiteSpace=wrap;html=1;align=center;fillColor=#d5e8d4;strokeColor=#82b366;" parent="1" vertex="1">
          <mxGeometry x="-310" y="390" width="100" height="40" as="geometry" />
        </mxCell>
        <mxCell id="IWDR3bXAUsiOQZhs0rEP-73" value="DNI" style="ellipse;whiteSpace=wrap;html=1;align=center;fillColor=#d5e8d4;strokeColor=#82b366;" parent="1" vertex="1">
          <mxGeometry x="-370" y="330" width="100" height="40" as="geometry" />
        </mxCell>
        <mxCell id="IWDR3bXAUsiOQZhs0rEP-74" value="Teléfono" style="ellipse;whiteSpace=wrap;html=1;align=center;fillColor=#d5e8d4;strokeColor=#82b366;" parent="1" vertex="1">
          <mxGeometry x="-80" y="400" width="100" height="40" as="geometry" />
        </mxCell>
        <mxCell id="IWDR3bXAUsiOQZhs0rEP-75" value="Date_nacimiento" style="ellipse;whiteSpace=wrap;html=1;align=center;fillColor=#d5e8d4;strokeColor=#82b366;" parent="1" vertex="1">
          <mxGeometry x="-40" y="350" width="100" height="40" as="geometry" />
        </mxCell>
        <mxCell id="IWDR3bXAUsiOQZhs0rEP-76" value="" style="endArrow=none;html=1;rounded=0;" parent="1" source="IWDR3bXAUsiOQZhs0rEP-73" target="IWDR3bXAUsiOQZhs0rEP-2" edge="1">
          <mxGeometry relative="1" as="geometry">
            <mxPoint x="-170" y="190" as="sourcePoint" />
            <mxPoint x="-10" y="190" as="targetPoint" />
          </mxGeometry>
        </mxCell>
        <mxCell id="IWDR3bXAUsiOQZhs0rEP-77" value="" style="endArrow=none;html=1;rounded=0;" parent="1" source="IWDR3bXAUsiOQZhs0rEP-69" target="IWDR3bXAUsiOQZhs0rEP-2" edge="1">
          <mxGeometry relative="1" as="geometry">
            <mxPoint x="-130" y="180" as="sourcePoint" />
            <mxPoint x="30" y="180" as="targetPoint" />
          </mxGeometry>
        </mxCell>
        <mxCell id="IWDR3bXAUsiOQZhs0rEP-78" value="" style="endArrow=none;html=1;rounded=0;" parent="1" source="IWDR3bXAUsiOQZhs0rEP-68" target="IWDR3bXAUsiOQZhs0rEP-2" edge="1">
          <mxGeometry relative="1" as="geometry">
            <mxPoint x="-40" y="240" as="sourcePoint" />
            <mxPoint x="120" y="240" as="targetPoint" />
          </mxGeometry>
        </mxCell>
        <mxCell id="IWDR3bXAUsiOQZhs0rEP-79" value="" style="endArrow=none;html=1;rounded=0;" parent="1" source="IWDR3bXAUsiOQZhs0rEP-2" target="IWDR3bXAUsiOQZhs0rEP-75" edge="1">
          <mxGeometry relative="1" as="geometry">
            <mxPoint x="-160" y="350" as="sourcePoint" />
            <mxPoint y="350" as="targetPoint" />
          </mxGeometry>
        </mxCell>
        <mxCell id="IWDR3bXAUsiOQZhs0rEP-80" value="" style="endArrow=none;html=1;rounded=0;" parent="1" source="IWDR3bXAUsiOQZhs0rEP-2" target="IWDR3bXAUsiOQZhs0rEP-74" edge="1">
          <mxGeometry relative="1" as="geometry">
            <mxPoint x="-150" y="360" as="sourcePoint" />
            <mxPoint x="10" y="360" as="targetPoint" />
          </mxGeometry>
        </mxCell>
        <mxCell id="IWDR3bXAUsiOQZhs0rEP-81" value="" style="endArrow=none;html=1;rounded=0;" parent="1" source="IWDR3bXAUsiOQZhs0rEP-2" target="IWDR3bXAUsiOQZhs0rEP-71" edge="1">
          <mxGeometry relative="1" as="geometry">
            <mxPoint x="-200" y="350" as="sourcePoint" />
            <mxPoint x="-40" y="350" as="targetPoint" />
          </mxGeometry>
        </mxCell>
        <mxCell id="IWDR3bXAUsiOQZhs0rEP-82" value="" style="endArrow=none;html=1;rounded=0;" parent="1" source="IWDR3bXAUsiOQZhs0rEP-72" target="IWDR3bXAUsiOQZhs0rEP-2" edge="1">
          <mxGeometry relative="1" as="geometry">
            <mxPoint x="-270" y="320" as="sourcePoint" />
            <mxPoint x="-110" y="320" as="targetPoint" />
          </mxGeometry>
        </mxCell>
        <mxCell id="IWDR3bXAUsiOQZhs0rEP-85" value="Id-Reserva" style="ellipse;whiteSpace=wrap;html=1;align=center;fontStyle=4;fillColor=#d5e8d4;strokeColor=#82b366;" parent="1" vertex="1">
          <mxGeometry x="570" y="200" width="100" height="40" as="geometry" />
        </mxCell>
        <mxCell id="IWDR3bXAUsiOQZhs0rEP-86" value="Estado_Reserva" style="ellipse;whiteSpace=wrap;html=1;align=center;fillColor=#d5e8d4;strokeColor=#82b366;" parent="1" vertex="1">
          <mxGeometry x="314" y="370" width="100" height="40" as="geometry" />
        </mxCell>
        <mxCell id="IWDR3bXAUsiOQZhs0rEP-87" value="Date_Inicio" style="ellipse;whiteSpace=wrap;html=1;align=center;fillColor=#d5e8d4;strokeColor=#82b366;" parent="1" vertex="1">
          <mxGeometry x="540" y="400" width="100" height="40" as="geometry" />
        </mxCell>
        <mxCell id="IWDR3bXAUsiOQZhs0rEP-88" value="Date_Fin" style="ellipse;whiteSpace=wrap;html=1;align=center;fillColor=#d5e8d4;strokeColor=#82b366;" parent="1" vertex="1">
          <mxGeometry x="630" y="360" width="100" height="40" as="geometry" />
        </mxCell>
        <mxCell id="IWDR3bXAUsiOQZhs0rEP-89" value="" style="endArrow=none;html=1;rounded=0;" parent="1" source="IWDR3bXAUsiOQZhs0rEP-85" target="IWDR3bXAUsiOQZhs0rEP-1" edge="1">
          <mxGeometry relative="1" as="geometry">
            <mxPoint x="440" y="280" as="sourcePoint" />
            <mxPoint x="600" y="280" as="targetPoint" />
          </mxGeometry>
        </mxCell>
        <mxCell id="IWDR3bXAUsiOQZhs0rEP-90" value="" style="endArrow=none;html=1;rounded=0;" parent="1" source="IWDR3bXAUsiOQZhs0rEP-86" target="IWDR3bXAUsiOQZhs0rEP-1" edge="1">
          <mxGeometry relative="1" as="geometry">
            <mxPoint x="370" y="380" as="sourcePoint" />
            <mxPoint x="530" y="380" as="targetPoint" />
          </mxGeometry>
        </mxCell>
        <mxCell id="IWDR3bXAUsiOQZhs0rEP-91" value="" style="endArrow=none;html=1;rounded=0;" parent="1" source="IWDR3bXAUsiOQZhs0rEP-88" target="IWDR3bXAUsiOQZhs0rEP-1" edge="1">
          <mxGeometry relative="1" as="geometry">
            <mxPoint x="440" y="450" as="sourcePoint" />
            <mxPoint x="600" y="450" as="targetPoint" />
          </mxGeometry>
        </mxCell>
        <mxCell id="IWDR3bXAUsiOQZhs0rEP-92" value="" style="endArrow=none;html=1;rounded=0;" parent="1" source="IWDR3bXAUsiOQZhs0rEP-1" target="IWDR3bXAUsiOQZhs0rEP-87" edge="1">
          <mxGeometry relative="1" as="geometry">
            <mxPoint x="520" y="360" as="sourcePoint" />
            <mxPoint x="680" y="360" as="targetPoint" />
          </mxGeometry>
        </mxCell>
        <mxCell id="IWDR3bXAUsiOQZhs0rEP-94" value="Formato:&lt;br&gt;XX dias y XX noches" style="shape=hexagon;perimeter=hexagonPerimeter2;whiteSpace=wrap;html=1;fixedSize=1;fillColor=#e1d5e7;strokeColor=#9673a6;" parent="1" vertex="1">
          <mxGeometry x="730" width="90" height="60" as="geometry" />
        </mxCell>
        <mxCell id="IWDR3bXAUsiOQZhs0rEP-99" value="Contiene" style="shape=rhombus;perimeter=rhombusPerimeter;whiteSpace=wrap;html=1;align=center;fillColor=#ffe6cc;strokeColor=#d79b00;" parent="1" vertex="1">
          <mxGeometry x="400" y="750" width="100" height="50" as="geometry" />
        </mxCell>
        <mxCell id="IWDR3bXAUsiOQZhs0rEP-100" value="RECETA" style="whiteSpace=wrap;html=1;align=center;fillColor=#dae8fc;strokeColor=#6c8ebf;" parent="1" vertex="1">
          <mxGeometry x="400" y="900" width="100" height="40" as="geometry" />
        </mxCell>
        <mxCell id="IWDR3bXAUsiOQZhs0rEP-104" value="" style="endArrow=none;html=1;rounded=0;" parent="1" source="IWDR3bXAUsiOQZhs0rEP-99" target="IWDR3bXAUsiOQZhs0rEP-100" edge="1">
          <mxGeometry relative="1" as="geometry">
            <mxPoint x="351" y="830" as="sourcePoint" />
            <mxPoint x="511" y="830" as="targetPoint" />
          </mxGeometry>
        </mxCell>
        <mxCell id="IWDR3bXAUsiOQZhs0rEP-105" value="Id-Receta" style="ellipse;whiteSpace=wrap;html=1;align=center;fontStyle=4;fillColor=#d5e8d4;strokeColor=#82b366;" parent="1" vertex="1">
          <mxGeometry x="261" y="1010" width="100" height="40" as="geometry" />
        </mxCell>
        <mxCell id="IWDR3bXAUsiOQZhs0rEP-106" value="Responsable" style="ellipse;whiteSpace=wrap;html=1;align=center;fillColor=#d5e8d4;strokeColor=#82b366;" parent="1" vertex="1">
          <mxGeometry x="211" y="850" width="100" height="40" as="geometry" />
        </mxCell>
        <mxCell id="IWDR3bXAUsiOQZhs0rEP-107" value="Nombre" style="ellipse;whiteSpace=wrap;html=1;align=center;fillColor=#d5e8d4;strokeColor=#82b366;" parent="1" vertex="1">
          <mxGeometry x="211" y="930" width="100" height="40" as="geometry" />
        </mxCell>
        <mxCell id="IWDR3bXAUsiOQZhs0rEP-108" value="Procedimiento" style="ellipse;whiteSpace=wrap;html=1;align=center;fillColor=#d5e8d4;strokeColor=#82b366;" parent="1" vertex="1">
          <mxGeometry x="391" y="1020" width="100" height="40" as="geometry" />
        </mxCell>
        <mxCell id="IWDR3bXAUsiOQZhs0rEP-109" value="Rendimiento" style="ellipse;whiteSpace=wrap;html=1;align=center;fillColor=#d5e8d4;strokeColor=#82b366;" parent="1" vertex="1">
          <mxGeometry x="531" y="1000" width="100" height="40" as="geometry" />
        </mxCell>
        <mxCell id="IWDR3bXAUsiOQZhs0rEP-110" value="" style="endArrow=none;html=1;rounded=0;" parent="1" source="IWDR3bXAUsiOQZhs0rEP-106" target="IWDR3bXAUsiOQZhs0rEP-100" edge="1">
          <mxGeometry relative="1" as="geometry">
            <mxPoint x="331" y="990" as="sourcePoint" />
            <mxPoint x="491" y="990" as="targetPoint" />
          </mxGeometry>
        </mxCell>
        <mxCell id="IWDR3bXAUsiOQZhs0rEP-111" value="" style="endArrow=none;html=1;rounded=0;" parent="1" source="IWDR3bXAUsiOQZhs0rEP-105" target="IWDR3bXAUsiOQZhs0rEP-100" edge="1">
          <mxGeometry relative="1" as="geometry">
            <mxPoint x="391" y="1000" as="sourcePoint" />
            <mxPoint x="551" y="1000" as="targetPoint" />
            <Array as="points" />
          </mxGeometry>
        </mxCell>
        <mxCell id="IWDR3bXAUsiOQZhs0rEP-112" value="" style="endArrow=none;html=1;rounded=0;" parent="1" source="IWDR3bXAUsiOQZhs0rEP-100" target="IWDR3bXAUsiOQZhs0rEP-107" edge="1">
          <mxGeometry relative="1" as="geometry">
            <mxPoint x="491" y="1010" as="sourcePoint" />
            <mxPoint x="651" y="1010" as="targetPoint" />
          </mxGeometry>
        </mxCell>
        <mxCell id="IWDR3bXAUsiOQZhs0rEP-113" value="" style="endArrow=none;html=1;rounded=0;" parent="1" source="IWDR3bXAUsiOQZhs0rEP-100" target="IWDR3bXAUsiOQZhs0rEP-108" edge="1">
          <mxGeometry relative="1" as="geometry">
            <mxPoint x="501" y="990" as="sourcePoint" />
            <mxPoint x="661" y="990" as="targetPoint" />
          </mxGeometry>
        </mxCell>
        <mxCell id="IWDR3bXAUsiOQZhs0rEP-114" value="" style="endArrow=none;html=1;rounded=0;" parent="1" source="IWDR3bXAUsiOQZhs0rEP-100" target="IWDR3bXAUsiOQZhs0rEP-109" edge="1">
          <mxGeometry relative="1" as="geometry">
            <mxPoint x="571" y="860" as="sourcePoint" />
            <mxPoint x="731" y="860" as="targetPoint" />
          </mxGeometry>
        </mxCell>
        <mxCell id="IWDR3bXAUsiOQZhs0rEP-115" value="Número de porciones que se pueden hacer con la receta" style="shape=hexagon;perimeter=hexagonPerimeter2;whiteSpace=wrap;html=1;fixedSize=1;fillColor=#e1d5e7;strokeColor=#9673a6;" parent="1" vertex="1">
          <mxGeometry x="511" y="1079" width="140" height="90" as="geometry" />
        </mxCell>
        <mxCell id="IWDR3bXAUsiOQZhs0rEP-116" value="" style="endArrow=none;html=1;rounded=0;" parent="1" source="IWDR3bXAUsiOQZhs0rEP-109" target="IWDR3bXAUsiOQZhs0rEP-115" edge="1">
          <mxGeometry relative="1" as="geometry">
            <mxPoint x="721" y="890" as="sourcePoint" />
            <mxPoint x="881" y="890" as="targetPoint" />
          </mxGeometry>
        </mxCell>
        <mxCell id="IWDR3bXAUsiOQZhs0rEP-117" value="Asocia" style="shape=rhombus;perimeter=rhombusPerimeter;whiteSpace=wrap;html=1;align=center;fillColor=#ffe6cc;strokeColor=#d79b00;" parent="1" vertex="1">
          <mxGeometry x="701" y="895" width="100" height="50" as="geometry" />
        </mxCell>
        <mxCell id="IWDR3bXAUsiOQZhs0rEP-118" value="" style="endArrow=none;html=1;rounded=0;" parent="1" source="IWDR3bXAUsiOQZhs0rEP-100" target="IWDR3bXAUsiOQZhs0rEP-117" edge="1">
          <mxGeometry relative="1" as="geometry">
            <mxPoint x="581" y="830" as="sourcePoint" />
            <mxPoint x="741" y="830" as="targetPoint" />
          </mxGeometry>
        </mxCell>
        <mxCell id="IWDR3bXAUsiOQZhs0rEP-119" value="INGREDIENTES" style="whiteSpace=wrap;html=1;align=center;fillColor=#dae8fc;strokeColor=#6c8ebf;" parent="1" vertex="1">
          <mxGeometry x="931" y="900" width="100" height="40" as="geometry" />
        </mxCell>
        <mxCell id="IWDR3bXAUsiOQZhs0rEP-120" value="" style="endArrow=none;html=1;rounded=0;" parent="1" source="IWDR3bXAUsiOQZhs0rEP-117" target="IWDR3bXAUsiOQZhs0rEP-119" edge="1">
          <mxGeometry relative="1" as="geometry">
            <mxPoint x="861" y="840" as="sourcePoint" />
            <mxPoint x="1021" y="840" as="targetPoint" />
          </mxGeometry>
        </mxCell>
        <mxCell id="IWDR3bXAUsiOQZhs0rEP-121" value="M : N" style="text;strokeColor=none;fillColor=none;spacingLeft=4;spacingRight=4;overflow=hidden;rotatable=0;points=[[0,0.5],[1,0.5]];portConstraint=eastwest;fontSize=12;whiteSpace=wrap;html=1;fontStyle=1" parent="1" vertex="1">
          <mxGeometry x="731" y="865" width="40" height="30" as="geometry" />
        </mxCell>
        <mxCell id="IWDR3bXAUsiOQZhs0rEP-122" value="Cantidad" style="ellipse;whiteSpace=wrap;html=1;align=center;fillColor=#d5e8d4;strokeColor=#82b366;" parent="1" vertex="1">
          <mxGeometry x="1000" y="1039" width="100" height="40" as="geometry" />
        </mxCell>
        <mxCell id="IWDR3bXAUsiOQZhs0rEP-125" value="Unidad" style="ellipse;whiteSpace=wrap;html=1;align=center;fillColor=#d5e8d4;strokeColor=#82b366;" parent="1" vertex="1">
          <mxGeometry x="1060" y="970" width="100" height="40" as="geometry" />
        </mxCell>
        <mxCell id="IWDR3bXAUsiOQZhs0rEP-128" value="Id-Ingrediente" style="ellipse;whiteSpace=wrap;html=1;align=center;fontStyle=4;fillColor=#d5e8d4;strokeColor=#82b366;" parent="1" vertex="1">
          <mxGeometry x="801" y="980" width="100" height="40" as="geometry" />
        </mxCell>
        <mxCell id="IWDR3bXAUsiOQZhs0rEP-129" value="Nombre" style="ellipse;whiteSpace=wrap;html=1;align=center;fillColor=#d5e8d4;strokeColor=#82b366;" parent="1" vertex="1">
          <mxGeometry x="860" y="1039" width="100" height="40" as="geometry" />
        </mxCell>
        <mxCell id="IWDR3bXAUsiOQZhs0rEP-133" value="" style="endArrow=none;html=1;rounded=0;" parent="1" source="IWDR3bXAUsiOQZhs0rEP-119" target="IWDR3bXAUsiOQZhs0rEP-129" edge="1">
          <mxGeometry relative="1" as="geometry">
            <mxPoint x="1051" y="950" as="sourcePoint" />
            <mxPoint x="1211" y="950" as="targetPoint" />
          </mxGeometry>
        </mxCell>
        <mxCell id="IWDR3bXAUsiOQZhs0rEP-134" value="" style="endArrow=none;html=1;rounded=0;" parent="1" source="IWDR3bXAUsiOQZhs0rEP-128" target="IWDR3bXAUsiOQZhs0rEP-119" edge="1">
          <mxGeometry relative="1" as="geometry">
            <mxPoint x="1071" y="870" as="sourcePoint" />
            <mxPoint x="1231" y="870" as="targetPoint" />
          </mxGeometry>
        </mxCell>
        <mxCell id="IWDR3bXAUsiOQZhs0rEP-138" value="CRUCERO" style="whiteSpace=wrap;html=1;align=center;fillColor=#dae8fc;strokeColor=#6c8ebf;" parent="1" vertex="1">
          <mxGeometry x="-103.5" y="-20" width="100" height="40" as="geometry" />
        </mxCell>
        <mxCell id="IWDR3bXAUsiOQZhs0rEP-139" value="Id-Crucero" style="ellipse;whiteSpace=wrap;html=1;align=center;fontStyle=4;fillColor=#d5e8d4;strokeColor=#82b366;" parent="1" vertex="1">
          <mxGeometry x="-233.5" y="-180" width="100" height="40" as="geometry" />
        </mxCell>
        <mxCell id="IWDR3bXAUsiOQZhs0rEP-140" value="Nombre" style="ellipse;whiteSpace=wrap;html=1;align=center;fillColor=#d5e8d4;strokeColor=#82b366;" parent="1" vertex="1">
          <mxGeometry x="-273.5" y="-115" width="100" height="40" as="geometry" />
        </mxCell>
        <mxCell id="IWDR3bXAUsiOQZhs0rEP-141" value="CapacidadMáx" style="ellipse;whiteSpace=wrap;html=1;align=center;fillColor=#d5e8d4;strokeColor=#82b366;" parent="1" vertex="1">
          <mxGeometry x="-123.5" y="-205" width="100" height="40" as="geometry" />
        </mxCell>
        <mxCell id="IWDR3bXAUsiOQZhs0rEP-143" value="" style="endArrow=none;html=1;rounded=0;" parent="1" source="IWDR3bXAUsiOQZhs0rEP-140" target="IWDR3bXAUsiOQZhs0rEP-138" edge="1">
          <mxGeometry relative="1" as="geometry">
            <mxPoint x="-193.5" y="-40" as="sourcePoint" />
            <mxPoint x="-33.5" y="-40" as="targetPoint" />
          </mxGeometry>
        </mxCell>
        <mxCell id="IWDR3bXAUsiOQZhs0rEP-144" value="" style="endArrow=none;html=1;rounded=0;" parent="1" source="IWDR3bXAUsiOQZhs0rEP-139" target="IWDR3bXAUsiOQZhs0rEP-138" edge="1">
          <mxGeometry relative="1" as="geometry">
            <mxPoint x="36.5" y="-170" as="sourcePoint" />
            <mxPoint x="196.5" y="-170" as="targetPoint" />
          </mxGeometry>
        </mxCell>
        <mxCell id="IWDR3bXAUsiOQZhs0rEP-145" value="" style="endArrow=none;html=1;rounded=0;" parent="1" source="IWDR3bXAUsiOQZhs0rEP-138" target="IWDR3bXAUsiOQZhs0rEP-141" edge="1">
          <mxGeometry relative="1" as="geometry">
            <mxPoint x="-3.5" y="-80" as="sourcePoint" />
            <mxPoint x="156.5" y="-80" as="targetPoint" />
          </mxGeometry>
        </mxCell>
        <mxCell id="IWDR3bXAUsiOQZhs0rEP-146" value="Asocia" style="shape=rhombus;perimeter=rhombusPerimeter;whiteSpace=wrap;html=1;align=center;fillColor=#ffe6cc;strokeColor=#d79b00;" parent="1" vertex="1">
          <mxGeometry x="90" y="-25" width="100" height="50" as="geometry" />
        </mxCell>
        <mxCell id="IWDR3bXAUsiOQZhs0rEP-148" value="" style="endArrow=none;html=1;rounded=0;" parent="1" source="IWDR3bXAUsiOQZhs0rEP-138" target="IWDR3bXAUsiOQZhs0rEP-146" edge="1">
          <mxGeometry relative="1" as="geometry">
            <mxPoint x="106.5" y="70" as="sourcePoint" />
            <mxPoint x="266.5" y="70" as="targetPoint" />
          </mxGeometry>
        </mxCell>
        <mxCell id="IWDR3bXAUsiOQZhs0rEP-154" value="1 : M" style="text;strokeColor=none;fillColor=none;spacingLeft=4;spacingRight=4;overflow=hidden;rotatable=0;points=[[0,0.5],[1,0.5]];portConstraint=eastwest;fontSize=12;whiteSpace=wrap;html=1;fontStyle=1" parent="1" vertex="1">
          <mxGeometry x="120" y="-55" width="40" height="30" as="geometry" />
        </mxCell>
        <mxCell id="IWDR3bXAUsiOQZhs0rEP-159" value="Aborda" style="shape=rhombus;perimeter=rhombusPerimeter;whiteSpace=wrap;html=1;align=center;fillColor=#ffe6cc;strokeColor=#d79b00;" parent="1" vertex="1">
          <mxGeometry x="-360" y="-25" width="100" height="50" as="geometry" />
        </mxCell>
        <mxCell id="IWDR3bXAUsiOQZhs0rEP-160" value="ISLA" style="whiteSpace=wrap;html=1;align=center;fillColor=#dae8fc;strokeColor=#6c8ebf;" parent="1" vertex="1">
          <mxGeometry x="-572.5" y="-20" width="100" height="40" as="geometry" />
        </mxCell>
        <mxCell id="IWDR3bXAUsiOQZhs0rEP-161" value="Id-Isla" style="ellipse;whiteSpace=wrap;html=1;align=center;fontStyle=4;fillColor=#d5e8d4;strokeColor=#82b366;" parent="1" vertex="1">
          <mxGeometry x="-482.5" y="-116" width="100" height="40" as="geometry" />
        </mxCell>
        <mxCell id="IWDR3bXAUsiOQZhs0rEP-162" value="Nombre" style="ellipse;whiteSpace=wrap;html=1;align=center;fillColor=#d5e8d4;strokeColor=#82b366;" parent="1" vertex="1">
          <mxGeometry x="-652.5" y="-116" width="100" height="40" as="geometry" />
        </mxCell>
        <mxCell id="IWDR3bXAUsiOQZhs0rEP-163" value="" style="endArrow=none;html=1;rounded=0;" parent="1" source="IWDR3bXAUsiOQZhs0rEP-161" target="IWDR3bXAUsiOQZhs0rEP-160" edge="1">
          <mxGeometry relative="1" as="geometry">
            <mxPoint x="-472.5" y="-66" as="sourcePoint" />
            <mxPoint x="-312.5" y="-66" as="targetPoint" />
          </mxGeometry>
        </mxCell>
        <mxCell id="IWDR3bXAUsiOQZhs0rEP-164" value="" style="endArrow=none;html=1;rounded=0;" parent="1" source="IWDR3bXAUsiOQZhs0rEP-162" target="IWDR3bXAUsiOQZhs0rEP-160" edge="1">
          <mxGeometry relative="1" as="geometry">
            <mxPoint x="-602.5" y="44" as="sourcePoint" />
            <mxPoint x="-442.5" y="44" as="targetPoint" />
          </mxGeometry>
        </mxCell>
        <mxCell id="IWDR3bXAUsiOQZhs0rEP-171" value="M : N" style="text;strokeColor=none;fillColor=none;spacingLeft=4;spacingRight=4;overflow=hidden;rotatable=0;points=[[0,0.5],[1,0.5]];portConstraint=eastwest;fontSize=12;whiteSpace=wrap;html=1;fontStyle=1" parent="1" vertex="1">
          <mxGeometry x="-330" y="-55" width="40" height="30" as="geometry" />
        </mxCell>
        <mxCell id="IWDR3bXAUsiOQZhs0rEP-181" value="1 : M" style="text;strokeColor=none;fillColor=none;spacingLeft=4;spacingRight=4;overflow=hidden;rotatable=0;points=[[0,0.5],[1,0.5]];portConstraint=eastwest;fontSize=12;whiteSpace=wrap;html=1;fontStyle=1" parent="1" vertex="1">
          <mxGeometry x="-3.5" y="-30" width="40" height="30" as="geometry" />
        </mxCell>
        <mxCell id="IWDR3bXAUsiOQZhs0rEP-182" value="1 : M" style="text;strokeColor=none;fillColor=none;spacingLeft=4;spacingRight=4;overflow=hidden;rotatable=0;points=[[0,0.5],[1,0.5]];portConstraint=eastwest;fontSize=12;whiteSpace=wrap;html=1;fontStyle=1" parent="1" vertex="1">
          <mxGeometry x="510" y="250" width="40" height="30" as="geometry" />
        </mxCell>
        <mxCell id="IWDR3bXAUsiOQZhs0rEP-183" value="1 : M" style="text;strokeColor=none;fillColor=none;spacingLeft=4;spacingRight=4;overflow=hidden;rotatable=0;points=[[0,0.5],[1,0.5]];portConstraint=eastwest;fontSize=12;whiteSpace=wrap;html=1;fontStyle=1" parent="1" vertex="1">
          <mxGeometry x="510" y="50" width="40" height="30" as="geometry" />
        </mxCell>
        <mxCell id="IWDR3bXAUsiOQZhs0rEP-184" value="0 : M" style="text;strokeColor=none;fillColor=none;spacingLeft=4;spacingRight=4;overflow=hidden;rotatable=0;points=[[0,0.5],[1,0.5]];portConstraint=eastwest;fontSize=12;whiteSpace=wrap;html=1;fontStyle=1" parent="1" vertex="1">
          <mxGeometry x="420" y="270" width="40" height="30" as="geometry" />
        </mxCell>
        <mxCell id="IWDR3bXAUsiOQZhs0rEP-185" value="1 : 1" style="text;strokeColor=none;fillColor=none;spacingLeft=4;spacingRight=4;overflow=hidden;rotatable=0;points=[[0,0.5],[1,0.5]];portConstraint=eastwest;fontSize=12;whiteSpace=wrap;html=1;fontStyle=1" parent="1" vertex="1">
          <mxGeometry x="-100" y="270" width="40" height="30" as="geometry" />
        </mxCell>
        <mxCell id="IWDR3bXAUsiOQZhs0rEP-186" value="0 : M" style="text;strokeColor=none;fillColor=none;spacingLeft=4;spacingRight=4;overflow=hidden;rotatable=0;points=[[0,0.5],[1,0.5]];portConstraint=eastwest;fontSize=12;whiteSpace=wrap;html=1;fontStyle=1" parent="1" vertex="1">
          <mxGeometry x="780" y="270" width="40" height="30" as="geometry" />
        </mxCell>
        <mxCell id="IWDR3bXAUsiOQZhs0rEP-187" value="1 : 1" style="text;strokeColor=none;fillColor=none;spacingLeft=4;spacingRight=4;overflow=hidden;rotatable=0;points=[[0,0.5],[1,0.5]];portConstraint=eastwest;fontSize=12;whiteSpace=wrap;html=1;fontStyle=1" parent="1" vertex="1">
          <mxGeometry x="560" y="270" width="40" height="30" as="geometry" />
        </mxCell>
        <mxCell id="IWDR3bXAUsiOQZhs0rEP-189" value="1 : M" style="text;strokeColor=none;fillColor=none;spacingLeft=4;spacingRight=4;overflow=hidden;rotatable=0;points=[[0,0.5],[1,0.5]];portConstraint=eastwest;fontSize=12;whiteSpace=wrap;html=1;fontStyle=1" parent="1" vertex="1">
          <mxGeometry x="891" y="890" width="40" height="30" as="geometry" />
        </mxCell>
        <mxCell id="IWDR3bXAUsiOQZhs0rEP-190" value="1 : M" style="text;strokeColor=none;fillColor=none;spacingLeft=4;spacingRight=4;overflow=hidden;rotatable=0;points=[[0,0.5],[1,0.5]];portConstraint=eastwest;fontSize=12;whiteSpace=wrap;html=1;fontStyle=1" parent="1" vertex="1">
          <mxGeometry x="500" y="890" width="40" height="30" as="geometry" />
        </mxCell>
        <mxCell id="IWDR3bXAUsiOQZhs0rEP-191" value="1 : M" style="text;strokeColor=none;fillColor=none;spacingLeft=4;spacingRight=4;overflow=hidden;rotatable=0;points=[[0,0.5],[1,0.5]];portConstraint=eastwest;fontSize=12;whiteSpace=wrap;html=1;fontStyle=1" parent="1" vertex="1">
          <mxGeometry x="450" y="870" width="40" height="30" as="geometry" />
        </mxCell>
        <mxCell id="IWDR3bXAUsiOQZhs0rEP-193" value="1 : M" style="text;strokeColor=none;fillColor=none;spacingLeft=4;spacingRight=4;overflow=hidden;rotatable=0;points=[[0,0.5],[1,0.5]];portConstraint=eastwest;fontSize=12;whiteSpace=wrap;html=1;fontStyle=1" parent="1" vertex="1">
          <mxGeometry x="-320" y="170" width="40" height="30" as="geometry" />
        </mxCell>
        <mxCell id="IWDR3bXAUsiOQZhs0rEP-194" value="0 : M" style="text;strokeColor=none;fillColor=none;spacingLeft=4;spacingRight=4;overflow=hidden;rotatable=0;points=[[0,0.5],[1,0.5]];portConstraint=eastwest;fontSize=12;whiteSpace=wrap;html=1;fontStyle=1" parent="1" vertex="1">
          <mxGeometry x="-190" y="225" width="40" height="30" as="geometry" />
        </mxCell>
        <mxCell id="IWDR3bXAUsiOQZhs0rEP-195" value="1 : 1" style="text;strokeColor=none;fillColor=none;spacingLeft=4;spacingRight=4;overflow=hidden;rotatable=0;points=[[0,0.5],[1,0.5]];portConstraint=eastwest;fontSize=12;whiteSpace=wrap;html=1;fontStyle=1" parent="1" vertex="1">
          <mxGeometry x="-300" y="270" width="40" height="30" as="geometry" />
        </mxCell>
        <mxCell id="wp_j25usdMUmFiuetqk5-1" value="" style="endArrow=none;html=1;rounded=0;" parent="1" source="IWDR3bXAUsiOQZhs0rEP-51" target="IWDR3bXAUsiOQZhs0rEP-94" edge="1">
          <mxGeometry relative="1" as="geometry">
            <mxPoint x="700" y="90" as="sourcePoint" />
            <mxPoint x="860" y="90" as="targetPoint" />
          </mxGeometry>
        </mxCell>
        <mxCell id="wp_j25usdMUmFiuetqk5-2" value="Date_Arrival" style="ellipse;whiteSpace=wrap;html=1;align=center;fillColor=#d5e8d4;strokeColor=#82b366;" parent="1" vertex="1">
          <mxGeometry x="-13.5" y="-180" width="100" height="40" as="geometry" />
        </mxCell>
        <mxCell id="wp_j25usdMUmFiuetqk5-3" value="Date_Departure" style="ellipse;whiteSpace=wrap;html=1;align=center;fillColor=#d5e8d4;strokeColor=#82b366;" parent="1" vertex="1">
          <mxGeometry x="46.5" y="-125" width="100" height="40" as="geometry" />
        </mxCell>
        <mxCell id="wp_j25usdMUmFiuetqk5-4" value="" style="endArrow=none;html=1;rounded=0;" parent="1" source="IWDR3bXAUsiOQZhs0rEP-138" target="wp_j25usdMUmFiuetqk5-3" edge="1">
          <mxGeometry relative="1" as="geometry">
            <mxPoint x="-23.5" y="-70" as="sourcePoint" />
            <mxPoint x="136.5" y="-70" as="targetPoint" />
          </mxGeometry>
        </mxCell>
        <mxCell id="wp_j25usdMUmFiuetqk5-5" value="" style="endArrow=none;html=1;rounded=0;" parent="1" source="IWDR3bXAUsiOQZhs0rEP-138" target="wp_j25usdMUmFiuetqk5-2" edge="1">
          <mxGeometry relative="1" as="geometry">
            <mxPoint x="-113.5" y="60" as="sourcePoint" />
            <mxPoint x="46.5" y="60" as="targetPoint" />
          </mxGeometry>
        </mxCell>
        <mxCell id="wp_j25usdMUmFiuetqk5-7" value="Isla Santa Cruz,&lt;div&gt;San Cristobal,&lt;/div&gt;&lt;div&gt;Isabela,&lt;/div&gt;&lt;div&gt;Floreana&lt;/div&gt;" style="shape=hexagon;perimeter=hexagonPerimeter2;whiteSpace=wrap;html=1;fixedSize=1;fillColor=#e1d5e7;strokeColor=#9673a6;" parent="1" vertex="1">
          <mxGeometry x="-660" y="-260" width="115" height="80" as="geometry" />
        </mxCell>
        <mxCell id="wp_j25usdMUmFiuetqk5-8" value="" style="endArrow=none;html=1;rounded=0;" parent="1" source="wp_j25usdMUmFiuetqk5-7" target="IWDR3bXAUsiOQZhs0rEP-162" edge="1">
          <mxGeometry relative="1" as="geometry">
            <mxPoint x="-602.5" y="-166" as="sourcePoint" />
            <mxPoint x="-442.5" y="-166" as="targetPoint" />
          </mxGeometry>
        </mxCell>
        <mxCell id="wp_j25usdMUmFiuetqk5-9" value="" style="endArrow=none;html=1;rounded=0;" parent="1" source="IWDR3bXAUsiOQZhs0rEP-159" target="IWDR3bXAUsiOQZhs0rEP-138" edge="1">
          <mxGeometry relative="1" as="geometry">
            <mxPoint x="-303.5" y="80" as="sourcePoint" />
            <mxPoint x="-143.5" y="80" as="targetPoint" />
          </mxGeometry>
        </mxCell>
        <mxCell id="wp_j25usdMUmFiuetqk5-10" value="" style="endArrow=none;html=1;rounded=0;" parent="1" source="IWDR3bXAUsiOQZhs0rEP-160" target="IWDR3bXAUsiOQZhs0rEP-159" edge="1">
          <mxGeometry relative="1" as="geometry">
            <mxPoint x="-522.5" y="80" as="sourcePoint" />
            <mxPoint x="-362.5" y="80" as="targetPoint" />
          </mxGeometry>
        </mxCell>
        <mxCell id="wp_j25usdMUmFiuetqk5-11" value="&amp;nbsp;: M" style="text;strokeColor=none;fillColor=none;spacingLeft=4;spacingRight=4;overflow=hidden;rotatable=0;points=[[0,0.5],[1,0.5]];portConstraint=eastwest;fontSize=12;whiteSpace=wrap;html=1;fontStyle=1" parent="1" vertex="1">
          <mxGeometry x="-472.5" y="-30" width="40" height="30" as="geometry" />
        </mxCell>
        <mxCell id="wp_j25usdMUmFiuetqk5-12" value="&amp;nbsp;: M" style="text;strokeColor=none;fillColor=none;spacingLeft=4;spacingRight=4;overflow=hidden;rotatable=0;points=[[0,0.5],[1,0.5]];portConstraint=eastwest;fontSize=12;whiteSpace=wrap;html=1;fontStyle=1" parent="1" vertex="1">
          <mxGeometry x="-143.5" y="-30" width="40" height="30" as="geometry" />
        </mxCell>
        <mxCell id="wp_j25usdMUmFiuetqk5-13" value="Date_Visita" style="ellipse;whiteSpace=wrap;html=1;align=center;fillColor=#d5e8d4;strokeColor=#82b366;" parent="1" vertex="1">
          <mxGeometry x="-359.5" y="60" width="100" height="40" as="geometry" />
        </mxCell>
        <mxCell id="wp_j25usdMUmFiuetqk5-14" value="" style="endArrow=none;html=1;rounded=0;" parent="1" source="wp_j25usdMUmFiuetqk5-13" target="IWDR3bXAUsiOQZhs0rEP-159" edge="1">
          <mxGeometry relative="1" as="geometry">
            <mxPoint x="-283.5" y="60" as="sourcePoint" />
            <mxPoint x="-123.5" y="60" as="targetPoint" />
          </mxGeometry>
        </mxCell>
        <mxCell id="wp_j25usdMUmFiuetqk5-15" value="Dias_Reservados" style="ellipse;whiteSpace=wrap;html=1;align=center;fillColor=#d5e8d4;strokeColor=#82b366;" parent="1" vertex="1">
          <mxGeometry x="330" y="310" width="100" height="40" as="geometry" />
        </mxCell>
        <mxCell id="wp_j25usdMUmFiuetqk5-16" value="" style="endArrow=none;html=1;rounded=0;" parent="1" source="wp_j25usdMUmFiuetqk5-15" target="IWDR3bXAUsiOQZhs0rEP-1" edge="1">
          <mxGeometry relative="1" as="geometry">
            <mxPoint x="450" y="390" as="sourcePoint" />
            <mxPoint x="610" y="390" as="targetPoint" />
          </mxGeometry>
        </mxCell>
        <mxCell id="wp_j25usdMUmFiuetqk5-17" value="Dias_Totales" style="ellipse;whiteSpace=wrap;html=1;align=center;fillColor=#d5e8d4;strokeColor=#82b366;" parent="1" vertex="1">
          <mxGeometry x="330" y="420" width="100" height="40" as="geometry" />
        </mxCell>
        <mxCell id="wp_j25usdMUmFiuetqk5-18" value="" style="endArrow=none;html=1;rounded=0;" parent="1" source="wp_j25usdMUmFiuetqk5-17" target="IWDR3bXAUsiOQZhs0rEP-1" edge="1">
          <mxGeometry relative="1" as="geometry">
            <mxPoint x="350" y="470" as="sourcePoint" />
            <mxPoint x="510" y="470" as="targetPoint" />
          </mxGeometry>
        </mxCell>
        <mxCell id="wp_j25usdMUmFiuetqk5-19" value="Duración_Noche" style="ellipse;whiteSpace=wrap;html=1;align=center;fillColor=#d5e8d4;strokeColor=#82b366;" parent="1" vertex="1">
          <mxGeometry x="590" y="-80" width="100" height="40" as="geometry" />
        </mxCell>
        <mxCell id="wp_j25usdMUmFiuetqk5-20" value="" style="endArrow=none;html=1;rounded=0;" parent="1" source="IWDR3bXAUsiOQZhs0rEP-17" target="wp_j25usdMUmFiuetqk5-19" edge="1">
          <mxGeometry relative="1" as="geometry">
            <mxPoint x="170" y="-10" as="sourcePoint" />
            <mxPoint x="330" y="-10" as="targetPoint" />
          </mxGeometry>
        </mxCell>
        <mxCell id="0nypvXMljxwZ6imSbTbF-1" value="" style="endArrow=none;html=1;rounded=0;" parent="1" source="IWDR3bXAUsiOQZhs0rEP-146" target="IWDR3bXAUsiOQZhs0rEP-1" edge="1">
          <mxGeometry relative="1" as="geometry">
            <mxPoint x="250" y="150" as="sourcePoint" />
            <mxPoint x="410" y="150" as="targetPoint" />
          </mxGeometry>
        </mxCell>
        <mxCell id="0nypvXMljxwZ6imSbTbF-2" value="TIPO" style="whiteSpace=wrap;html=1;align=center;fillColor=#dae8fc;strokeColor=#6c8ebf;" parent="1" vertex="1">
          <mxGeometry x="40" y="600" width="100" height="40" as="geometry" />
        </mxCell>
        <mxCell id="0nypvXMljxwZ6imSbTbF-3" value="PROVEEDOR" style="whiteSpace=wrap;html=1;align=center;fillColor=#dae8fc;strokeColor=#6c8ebf;" parent="1" vertex="1">
          <mxGeometry x="1349" y="900" width="100" height="40" as="geometry" />
        </mxCell>
        <mxCell id="0nypvXMljxwZ6imSbTbF-4" value="VEDA" style="whiteSpace=wrap;html=1;align=center;fillColor=#dae8fc;strokeColor=#6c8ebf;" parent="1" vertex="1">
          <mxGeometry x="931" y="640" width="100" height="40" as="geometry" />
        </mxCell>
        <mxCell id="5qbtE9Bsrnd5UANm0Y_m-3" value="Divide" style="shape=rhombus;perimeter=rhombusPerimeter;whiteSpace=wrap;html=1;align=center;fillColor=#ffe6cc;strokeColor=#d79b00;" vertex="1" parent="1">
          <mxGeometry x="220" y="595" width="100" height="50" as="geometry" />
        </mxCell>
        <mxCell id="5qbtE9Bsrnd5UANm0Y_m-4" value="" style="endArrow=none;html=1;rounded=0;" edge="1" parent="1" source="5qbtE9Bsrnd5UANm0Y_m-3" target="IWDR3bXAUsiOQZhs0rEP-26">
          <mxGeometry relative="1" as="geometry">
            <mxPoint x="360" y="680" as="sourcePoint" />
            <mxPoint x="520" y="680" as="targetPoint" />
          </mxGeometry>
        </mxCell>
        <mxCell id="5qbtE9Bsrnd5UANm0Y_m-5" value="" style="endArrow=none;html=1;rounded=0;" edge="1" parent="1" source="0nypvXMljxwZ6imSbTbF-2" target="5qbtE9Bsrnd5UANm0Y_m-3">
          <mxGeometry relative="1" as="geometry">
            <mxPoint x="160" y="680" as="sourcePoint" />
            <mxPoint x="320" y="680" as="targetPoint" />
          </mxGeometry>
        </mxCell>
        <mxCell id="5qbtE9Bsrnd5UANm0Y_m-6" value="Nombre" style="ellipse;whiteSpace=wrap;html=1;align=center;fillColor=#d5e8d4;strokeColor=#82b366;" vertex="1" parent="1">
          <mxGeometry x="-100" y="560" width="100" height="40" as="geometry" />
        </mxCell>
        <mxCell id="5qbtE9Bsrnd5UANm0Y_m-8" value="ID-TIpo" style="ellipse;whiteSpace=wrap;html=1;align=center;fontStyle=4;fillColor=#d5e8d4;strokeColor=#82b366;" vertex="1" parent="1">
          <mxGeometry y="520" width="100" height="40" as="geometry" />
        </mxCell>
        <mxCell id="5qbtE9Bsrnd5UANm0Y_m-9" value="Date_inicio" style="ellipse;whiteSpace=wrap;html=1;align=center;fillColor=#d5e8d4;strokeColor=#82b366;" vertex="1" parent="1">
          <mxGeometry x="-100" y="640" width="100" height="40" as="geometry" />
        </mxCell>
        <mxCell id="5qbtE9Bsrnd5UANm0Y_m-10" value="Date_Fin" style="ellipse;whiteSpace=wrap;html=1;align=center;fillColor=#d5e8d4;strokeColor=#82b366;" vertex="1" parent="1">
          <mxGeometry y="680" width="100" height="40" as="geometry" />
        </mxCell>
        <mxCell id="5qbtE9Bsrnd5UANm0Y_m-11" value="" style="endArrow=none;html=1;rounded=0;" edge="1" parent="1" source="5qbtE9Bsrnd5UANm0Y_m-8" target="0nypvXMljxwZ6imSbTbF-2">
          <mxGeometry relative="1" as="geometry">
            <mxPoint x="30" y="550" as="sourcePoint" />
            <mxPoint x="280" y="690" as="targetPoint" />
          </mxGeometry>
        </mxCell>
        <mxCell id="5qbtE9Bsrnd5UANm0Y_m-12" value="M : N" style="text;strokeColor=none;fillColor=none;spacingLeft=4;spacingRight=4;overflow=hidden;rotatable=0;points=[[0,0.5],[1,0.5]];portConstraint=eastwest;fontSize=12;whiteSpace=wrap;html=1;fontStyle=1" vertex="1" parent="1">
          <mxGeometry x="250" y="565" width="40" height="30" as="geometry" />
        </mxCell>
        <mxCell id="5qbtE9Bsrnd5UANm0Y_m-13" value="1 : M" style="text;strokeColor=none;fillColor=none;spacingLeft=4;spacingRight=4;overflow=hidden;rotatable=0;points=[[0,0.5],[1,0.5]];portConstraint=eastwest;fontSize=12;whiteSpace=wrap;html=1;fontStyle=1" vertex="1" parent="1">
          <mxGeometry x="360" y="590" width="40" height="30" as="geometry" />
        </mxCell>
        <mxCell id="5qbtE9Bsrnd5UANm0Y_m-14" value="1 : M" style="text;strokeColor=none;fillColor=none;spacingLeft=4;spacingRight=4;overflow=hidden;rotatable=0;points=[[0,0.5],[1,0.5]];portConstraint=eastwest;fontSize=12;whiteSpace=wrap;html=1;fontStyle=1" vertex="1" parent="1">
          <mxGeometry x="140" y="590" width="40" height="30" as="geometry" />
        </mxCell>
        <mxCell id="5qbtE9Bsrnd5UANm0Y_m-15" value="" style="endArrow=none;html=1;rounded=0;" edge="1" parent="1" source="5qbtE9Bsrnd5UANm0Y_m-6" target="0nypvXMljxwZ6imSbTbF-2">
          <mxGeometry relative="1" as="geometry">
            <mxPoint y="680" as="sourcePoint" />
            <mxPoint x="160" y="680" as="targetPoint" />
          </mxGeometry>
        </mxCell>
        <mxCell id="5qbtE9Bsrnd5UANm0Y_m-16" value="" style="endArrow=none;html=1;rounded=0;" edge="1" parent="1" source="IWDR3bXAUsiOQZhs0rEP-39" target="5qbtE9Bsrnd5UANm0Y_m-6">
          <mxGeometry relative="1" as="geometry">
            <mxPoint x="-160" y="670" as="sourcePoint" />
            <mxPoint y="670" as="targetPoint" />
          </mxGeometry>
        </mxCell>
        <mxCell id="5qbtE9Bsrnd5UANm0Y_m-17" value="" style="endArrow=none;html=1;rounded=0;" edge="1" parent="1" source="5qbtE9Bsrnd5UANm0Y_m-9" target="0nypvXMljxwZ6imSbTbF-2">
          <mxGeometry relative="1" as="geometry">
            <mxPoint x="-10" y="670" as="sourcePoint" />
            <mxPoint x="150" y="670" as="targetPoint" />
          </mxGeometry>
        </mxCell>
        <mxCell id="5qbtE9Bsrnd5UANm0Y_m-18" value="" style="endArrow=none;html=1;rounded=0;" edge="1" parent="1" source="0nypvXMljxwZ6imSbTbF-2" target="5qbtE9Bsrnd5UANm0Y_m-10">
          <mxGeometry relative="1" as="geometry">
            <mxPoint x="-90" y="750" as="sourcePoint" />
            <mxPoint x="70" y="750" as="targetPoint" />
          </mxGeometry>
        </mxCell>
        <mxCell id="5qbtE9Bsrnd5UANm0Y_m-19" value="" style="endArrow=none;html=1;rounded=0;" edge="1" parent="1" source="IWDR3bXAUsiOQZhs0rEP-26" target="IWDR3bXAUsiOQZhs0rEP-99">
          <mxGeometry relative="1" as="geometry">
            <mxPoint x="580" y="670" as="sourcePoint" />
            <mxPoint x="740" y="670" as="targetPoint" />
          </mxGeometry>
        </mxCell>
        <mxCell id="5qbtE9Bsrnd5UANm0Y_m-20" value="1 : M" style="text;strokeColor=none;fillColor=none;spacingLeft=4;spacingRight=4;overflow=hidden;rotatable=0;points=[[0,0.5],[1,0.5]];portConstraint=eastwest;fontSize=12;whiteSpace=wrap;html=1;fontStyle=1" vertex="1" parent="1">
          <mxGeometry x="500" y="760" width="40" height="30" as="geometry" />
        </mxCell>
        <mxCell id="5qbtE9Bsrnd5UANm0Y_m-21" value="1 : 1" style="text;strokeColor=none;fillColor=none;spacingLeft=4;spacingRight=4;overflow=hidden;rotatable=0;points=[[0,0.5],[1,0.5]];portConstraint=eastwest;fontSize=12;whiteSpace=wrap;html=1;fontStyle=1" vertex="1" parent="1">
          <mxGeometry x="450" y="640" width="40" height="30" as="geometry" />
        </mxCell>
        <mxCell id="5qbtE9Bsrnd5UANm0Y_m-23" value="Date_Inicio_Veda" style="ellipse;whiteSpace=wrap;html=1;align=center;fillColor=#d5e8d4;strokeColor=#82b366;" vertex="1" parent="1">
          <mxGeometry x="1060" y="600" width="100" height="40" as="geometry" />
        </mxCell>
        <mxCell id="5qbtE9Bsrnd5UANm0Y_m-24" value="Date_Fin_Veda" style="ellipse;whiteSpace=wrap;html=1;align=center;fillColor=#d5e8d4;strokeColor=#82b366;" vertex="1" parent="1">
          <mxGeometry x="801" y="600" width="100" height="40" as="geometry" />
        </mxCell>
        <mxCell id="5qbtE9Bsrnd5UANm0Y_m-26" value="" style="endArrow=none;html=1;rounded=0;" edge="1" parent="1" source="IWDR3bXAUsiOQZhs0rEP-119" target="IWDR3bXAUsiOQZhs0rEP-125">
          <mxGeometry relative="1" as="geometry">
            <mxPoint x="1090" y="940" as="sourcePoint" />
            <mxPoint x="1250" y="940" as="targetPoint" />
          </mxGeometry>
        </mxCell>
        <mxCell id="5qbtE9Bsrnd5UANm0Y_m-27" value="" style="endArrow=none;html=1;rounded=0;" edge="1" parent="1" source="IWDR3bXAUsiOQZhs0rEP-119" target="IWDR3bXAUsiOQZhs0rEP-122">
          <mxGeometry relative="1" as="geometry">
            <mxPoint x="1070" y="960" as="sourcePoint" />
            <mxPoint x="1230" y="960" as="targetPoint" />
          </mxGeometry>
        </mxCell>
        <mxCell id="5qbtE9Bsrnd5UANm0Y_m-30" value="Tiene" style="shape=rhombus;perimeter=rhombusPerimeter;whiteSpace=wrap;html=1;align=center;fillColor=#ffe6cc;strokeColor=#d79b00;" vertex="1" parent="1">
          <mxGeometry x="931" y="760" width="100" height="50" as="geometry" />
        </mxCell>
        <mxCell id="5qbtE9Bsrnd5UANm0Y_m-33" value="Reestablaece" style="shape=rhombus;perimeter=rhombusPerimeter;whiteSpace=wrap;html=1;align=center;fillColor=#ffe6cc;strokeColor=#d79b00;" vertex="1" parent="1">
          <mxGeometry x="1140" y="895" width="100" height="50" as="geometry" />
        </mxCell>
        <mxCell id="5qbtE9Bsrnd5UANm0Y_m-34" value="" style="endArrow=none;html=1;rounded=0;" edge="1" parent="1" source="IWDR3bXAUsiOQZhs0rEP-119" target="5qbtE9Bsrnd5UANm0Y_m-30">
          <mxGeometry relative="1" as="geometry">
            <mxPoint x="1030" y="840" as="sourcePoint" />
            <mxPoint x="1190" y="840" as="targetPoint" />
          </mxGeometry>
        </mxCell>
        <mxCell id="5qbtE9Bsrnd5UANm0Y_m-35" value="" style="endArrow=none;html=1;rounded=0;" edge="1" parent="1" source="IWDR3bXAUsiOQZhs0rEP-119" target="5qbtE9Bsrnd5UANm0Y_m-33">
          <mxGeometry relative="1" as="geometry">
            <mxPoint x="1120" y="850" as="sourcePoint" />
            <mxPoint x="1280" y="850" as="targetPoint" />
          </mxGeometry>
        </mxCell>
        <mxCell id="5qbtE9Bsrnd5UANm0Y_m-36" value="" style="endArrow=none;html=1;rounded=0;" edge="1" parent="1" source="5qbtE9Bsrnd5UANm0Y_m-33" target="0nypvXMljxwZ6imSbTbF-3">
          <mxGeometry relative="1" as="geometry">
            <mxPoint x="1290" y="880" as="sourcePoint" />
            <mxPoint x="1450" y="880" as="targetPoint" />
          </mxGeometry>
        </mxCell>
        <mxCell id="5qbtE9Bsrnd5UANm0Y_m-37" value="" style="endArrow=none;html=1;rounded=0;" edge="1" parent="1" source="5qbtE9Bsrnd5UANm0Y_m-30" target="0nypvXMljxwZ6imSbTbF-4">
          <mxGeometry relative="1" as="geometry">
            <mxPoint x="940" y="760" as="sourcePoint" />
            <mxPoint x="1100" y="760" as="targetPoint" />
          </mxGeometry>
        </mxCell>
        <mxCell id="5qbtE9Bsrnd5UANm0Y_m-40" value="ID_Veda" style="ellipse;whiteSpace=wrap;html=1;align=center;fillColor=#d5e8d4;strokeColor=#82b366;" vertex="1" parent="1">
          <mxGeometry x="931" y="520" width="100" height="40" as="geometry" />
        </mxCell>
        <mxCell id="5qbtE9Bsrnd5UANm0Y_m-41" value="" style="endArrow=none;html=1;rounded=0;" edge="1" parent="1" source="5qbtE9Bsrnd5UANm0Y_m-24" target="0nypvXMljxwZ6imSbTbF-4">
          <mxGeometry relative="1" as="geometry">
            <mxPoint x="850" y="710" as="sourcePoint" />
            <mxPoint x="1010" y="710" as="targetPoint" />
          </mxGeometry>
        </mxCell>
        <mxCell id="5qbtE9Bsrnd5UANm0Y_m-42" value="" style="endArrow=none;html=1;rounded=0;" edge="1" parent="1" source="5qbtE9Bsrnd5UANm0Y_m-40" target="0nypvXMljxwZ6imSbTbF-4">
          <mxGeometry relative="1" as="geometry">
            <mxPoint x="1020" y="580" as="sourcePoint" />
            <mxPoint x="1180" y="580" as="targetPoint" />
          </mxGeometry>
        </mxCell>
        <mxCell id="5qbtE9Bsrnd5UANm0Y_m-43" value="" style="endArrow=none;html=1;rounded=0;" edge="1" parent="1" source="5qbtE9Bsrnd5UANm0Y_m-23" target="0nypvXMljxwZ6imSbTbF-4">
          <mxGeometry relative="1" as="geometry">
            <mxPoint x="1150" y="520" as="sourcePoint" />
            <mxPoint x="1310" y="520" as="targetPoint" />
          </mxGeometry>
        </mxCell>
        <mxCell id="5qbtE9Bsrnd5UANm0Y_m-44" value="M : N" style="text;strokeColor=none;fillColor=none;spacingLeft=4;spacingRight=4;overflow=hidden;rotatable=0;points=[[0,0.5],[1,0.5]];portConstraint=eastwest;fontSize=12;whiteSpace=wrap;html=1;fontStyle=1" vertex="1" parent="1">
          <mxGeometry x="1170" y="865" width="40" height="30" as="geometry" />
        </mxCell>
        <mxCell id="5qbtE9Bsrnd5UANm0Y_m-45" value="0 : M" style="text;strokeColor=none;fillColor=none;spacingLeft=4;spacingRight=4;overflow=hidden;rotatable=0;points=[[0,0.5],[1,0.5]];portConstraint=eastwest;fontSize=12;whiteSpace=wrap;html=1;fontStyle=1" vertex="1" parent="1">
          <mxGeometry x="1309" y="890" width="40" height="30" as="geometry" />
        </mxCell>
        <mxCell id="5qbtE9Bsrnd5UANm0Y_m-46" value="1 : M" style="text;strokeColor=none;fillColor=none;spacingLeft=4;spacingRight=4;overflow=hidden;rotatable=0;points=[[0,0.5],[1,0.5]];portConstraint=eastwest;fontSize=12;whiteSpace=wrap;html=1;fontStyle=1" vertex="1" parent="1">
          <mxGeometry x="1031" y="890" width="40" height="30" as="geometry" />
        </mxCell>
      </root>
    </mxGraphModel>
  </diagram>
</mxfile>
